<?xml version="1.0" encoding="utf-8"?>
<!-- Generator: Adobe Illustrator 15.1.0, SVG Export Plug-In . SVG Version: 6.00 Build 0)  -->
<!DOCTYPE svg PUBLIC "-//W3C//DTD SVG 1.1//EN" "http://www.w3.org/Graphics/SVG/1.1/DTD/svg11.dtd">
<svg version="1.1" id="Layer_1" xmlns="http://www.w3.org/2000/svg" xmlns:xlink="http://www.w3.org/1999/xlink" x="0px" y="0px"
	 width="1273px" height="1285px" viewBox="0 0 1273 1285" enable-background="new 0 0 1273 1285" xml:space="preserve">
<g id="graph1" transform="scale(1 1) rotate(0) translate(4 1280.8)">
	<title>CFG for &apos;proto_unwind_protect&apos; function</title>
	<polygon fill="#FFFFFF" stroke="#FFFFFF" points="-4,5.1 -4,-1280.7 1270,-1280.7 1270,5.1 	"/>
	<text transform="matrix(1 0 0 1 517.4102 -6.7004)" font-family="'Times-Roman'" font-size="14">CFG for &apos;proto_unwind_protect&apos; function</text>
	<g id="node1">
		<title>Node0x7fd9e9c104c0</title>
		<polygon fill="none" stroke="#000000" points="152.328,-1083.3 152.328,-1276.1 429.672,-1276.1 429.672,-1083.3 		"/>
		<text transform="matrix(1 0 0 1 160.3281 -1258.0999)" font-family="'Times-Roman'" font-size="14">entry:</text>
		<text transform="matrix(1 0 0 1 160.3281 -1241.3)" font-family="'Times-Roman'" font-size="14">%argc.addr = alloca i32, align 4</text>
		<text transform="matrix(1 0 0 1 160.3281 -1224.5002)" font-family="'Times-Roman'" font-size="14">%argv.addr = alloca i8**, align 8</text>
		<text transform="matrix(1 0 0 1 160.3281 -1207.7004)" font-family="'Times-Roman'" font-size="14">%xx = alloca %class.XX, align 8</text>
		<text transform="matrix(1 0 0 1 160.3281 -1190.8997)" font-family="'Times-Roman'" font-size="14">%exn.slot = alloca i8*</text>
		<text transform="matrix(1 0 0 1 160.3281 -1174.0999)" font-family="'Times-Roman'" font-size="14">%ehselector.slot = alloca i32</text>
		<text transform="matrix(1 0 0 1 160.3281 -1157.3)" font-family="'Times-Roman'" font-size="14">store i32 %argc, i32* %argc.addr, align 4</text>
		<text transform="matrix(1 0 0 1 160.3281 -1140.5002)" font-family="'Times-Roman'" font-size="14">store i8** %argv, i8*** %argv.addr, align 8</text>
		<text transform="matrix(1 0 0 1 160.3281 -1123.7004)" font-family="'Times-Roman'" font-size="14">call void @_ZN2XXC1Ev(%class.XX* %xx)</text>
		<text transform="matrix(1 0 0 1 160.3281 -1106.8997)" font-family="'Times-Roman'" font-size="14">invoke void @a()</text>
		<text transform="matrix(1 0 0 1 160.3281 -1090.0999)" font-family="'Times-Roman'" font-size="14">to label %invoke.cont unwind label %lpad</text>
	</g>
	<g id="node3">
		<title>Node0x7fd9e9c10510</title>
		<polygon fill="none" stroke="#000000" points="69.361,-798.9 69.361,-840.5 188.639,-840.5 188.639,-798.9 		"/>
		<text transform="matrix(1 0 0 1 77.3613 -822.5002)" font-family="'Times-Roman'" font-size="14">invoke.cont:</text>
		<text transform="matrix(1 0 0 1 77.3613 -805.7004)" font-family="'Times-Roman'" font-size="14">br label %try.cont</text>
	</g>
	<g id="edge2">
		<title>Node0x7fd9e9c104c0-&gt;Node0x7fd9e9c10510</title>
		<path fill="none" stroke="#000000" d="M184.107-1083.16c-8.877,11.55-16.834,23.77-23.107,36.46
			c-31.804,64.32-34.627,150.716-33.554,195.781"/>
		<polygon stroke="#000000" points="130.952,-850.758 127.776,-840.651 123.956,-850.533 		"/>
	</g>
	<g id="node5">
		<title>Node0x7fd9e9c10560</title>
		<polygon fill="none" stroke="#000000" points="170.229,-903.5 170.229,-1045.9 717.771,-1045.9 717.771,-903.5 		"/>
		<text transform="matrix(1 0 0 1 178.229 -1027.8997)" font-family="'Times-Roman'" font-size="14">lpad:</text>
		<text transform="matrix(1 0 0 1 178.229 -1011.0999)" font-family="'Times-Roman'" font-size="14">%0 = landingpad { i8*, i32 } personality i8* bitcast (i32 (...)* @__gxx_personality_v0 to i8*)</text>
		<text transform="matrix(1 0 0 1 178.229 -994.3)" font-family="'Times-Roman'" font-size="14">catch i8* null</text>
		<text transform="matrix(1 0 0 1 178.229 -977.5002)" font-family="'Times-Roman'" font-size="14">%1 = extractvalue { i8*, i32 } %0, 0</text>
		<text transform="matrix(1 0 0 1 178.229 -960.7004)" font-family="'Times-Roman'" font-size="14">store i8* %1, i8** %exn.slot</text>
		<text transform="matrix(1 0 0 1 178.229 -943.8997)" font-family="'Times-Roman'" font-size="14">%2 = extractvalue { i8*, i32 } %0, 1</text>
		<text transform="matrix(1 0 0 1 178.229 -927.0999)" font-family="'Times-Roman'" font-size="14">store i32 %2, i32* %ehselector.slot</text>
		<text transform="matrix(1 0 0 1 178.229 -910.3)" font-family="'Times-Roman'" font-size="14">br label %catch</text>
	</g>
	<g id="edge4">
		<title>Node0x7fd9e9c104c0-&gt;Node0x7fd9e9c10560</title>
		<path fill="none" stroke="#000000" d="M363.02-1083.14c7.313,9.7,14.683,19.48,21.837,28.97"/>
		<polygon stroke="#000000" points="387.858,-1056 391.082,-1045.91 382.268,-1051.79 		"/>
	</g>
	<g id="node7">
		<title>Node0x7fd9e9c106a0</title>
		<polygon fill="none" stroke="#000000" points="-0.059,-301.5 -0.059,-359.9 278.059,-359.9 278.059,-301.5 		"/>
		<text transform="matrix(1 0 0 1 7.9414 -341.8997)" font-family="'Times-Roman'" font-size="14">try.cont:</text>
		<text transform="matrix(1 0 0 1 7.9414 -325.0999)" font-family="'Times-Roman'" font-size="14">call void @_ZN2XXD1Ev(%class.XX* %xx)</text>
		<text transform="matrix(1 0 0 1 7.9414 -308.3)" font-family="'Times-Roman'" font-size="14">ret void</text>
	</g>
	<g id="edge6">
		<title>Node0x7fd9e9c10510-&gt;Node0x7fd9e9c106a0</title>
		<path fill="none" stroke="#000000" d="M125.232-798.698C114.398-737.74,85.694-549.145,114-396.7
			c1.668,8.982,4.529,18.325,7.734,27.033"/>
		<polygon stroke="#000000" points="125.07,-370.746 125.453,-360.158 118.551,-368.196 		"/>
	</g>
	<g id="node9">
		<title>Node0x7fd9e9c105b0</title>
		<polygon fill="none" stroke="#000000" points="290.4,-773.7 290.4,-865.7 631.6,-865.7 631.6,-773.7 		"/>
		<text transform="matrix(1 0 0 1 298.3999 -847.7004)" font-family="'Times-Roman'" font-size="14">catch:</text>
		<text transform="matrix(1 0 0 1 298.3999 -830.8997)" font-family="'Times-Roman'" font-size="14">%exn = load i8** %exn.slot</text>
		<text transform="matrix(1 0 0 1 298.3999 -814.0999)" font-family="'Times-Roman'" font-size="14">%3 = call i8* @__cxa_begin_catch(i8* %exn) nounwind</text>
		<text transform="matrix(1 0 0 1 298.3999 -797.3)" font-family="'Times-Roman'" font-size="14">invoke void @c()</text>
		<text transform="matrix(1 0 0 1 298.3999 -780.5002)" font-family="'Times-Roman'" font-size="14">to label %invoke.cont2 unwind label %lpad1</text>
	</g>
	<g id="edge8">
		<title>Node0x7fd9e9c10560-&gt;Node0x7fd9e9c105b0</title>
		<path fill="none" stroke="#000000" d="M451.803-903.469c1.018,9.147,2.046,18.414,3.031,27.274"/>
		<polygon stroke="#000000" points="458.339,-876.338 455.965,-866.013 451.382,-875.565 		"/>
	</g>
	<g id="node11">
		<title>Node0x7fd9e9c10600</title>
		<polygon fill="none" stroke="#000000" points="325.281,-627.5 325.281,-685.9 596.719,-685.9 596.719,-627.5 		"/>
		<text transform="matrix(1 0 0 1 333.2812 -667.8997)" font-family="'Times-Roman'" font-size="14">invoke.cont2:</text>
		<text transform="matrix(1 0 0 1 333.2812 -651.0999)" font-family="'Times-Roman'" font-size="14">invoke void @__cxa_end_catch()</text>
		<text transform="matrix(1 0 0 1 333.2812 -634.3)" font-family="'Times-Roman'" font-size="14">to label %invoke.cont4 unwind label %lpad3</text>
	</g>
	<g id="edge10">
		<title>Node0x7fd9e9c105b0-&gt;Node0x7fd9e9c10600</title>
		<path fill="none" stroke="#000000" d="M461-773.424c0,24.358,0,54.075,0,77.296"/>
		<polygon stroke="#000000" points="464.5,-695.959 461,-685.959 457.5,-695.959 		"/>
	</g>
	<g id="node13">
		<title>Node0x7fd9e9c106f0</title>
		<polygon fill="none" stroke="#000000" points="619.229,-577.1 619.229,-736.3 1166.77,-736.3 1166.77,-577.1 		"/>
		<text transform="matrix(1 0 0 1 627.229 -718.3)" font-family="'Times-Roman'" font-size="14">lpad1:</text>
		<text transform="matrix(1 0 0 1 627.229 -701.5002)" font-family="'Times-Roman'" font-size="14">%4 = landingpad { i8*, i32 } personality i8* bitcast (i32 (...)* @__gxx_personality_v0 to i8*)</text>
		<text transform="matrix(1 0 0 1 627.229 -684.7004)" font-family="'Times-Roman'" font-size="14">cleanup</text>
		<text transform="matrix(1 0 0 1 627.229 -667.8997)" font-family="'Times-Roman'" font-size="14">%5 = extractvalue { i8*, i32 } %4, 0</text>
		<text transform="matrix(1 0 0 1 627.229 -651.0999)" font-family="'Times-Roman'" font-size="14">store i8* %5, i8** %exn.slot</text>
		<text transform="matrix(1 0 0 1 627.229 -634.3)" font-family="'Times-Roman'" font-size="14">%6 = extractvalue { i8*, i32 } %4, 1</text>
		<text transform="matrix(1 0 0 1 627.229 -617.5002)" font-family="'Times-Roman'" font-size="14">store i32 %6, i32* %ehselector.slot</text>
		<text transform="matrix(1 0 0 1 627.229 -600.7004)" font-family="'Times-Roman'" font-size="14">invoke void @__cxa_end_catch()</text>
		<text transform="matrix(1 0 0 1 627.229 -583.8997)" font-family="'Times-Roman'" font-size="14">to label %invoke.cont5 unwind label %terminate.lpad</text>
	</g>
	<g id="edge12">
		<title>Node0x7fd9e9c105b0-&gt;Node0x7fd9e9c106f0</title>
		<path fill="none" stroke="#000000" d="M581.911-773.638c28.276,10.538,59.268,22.088,90.391,33.687"/>
		<polygon stroke="#000000" points="673.814,-743.123 681.962,-736.351 671.369,-736.563 		"/>
	</g>
	<g id="node15">
		<title>Node0x7fd9e9c10650</title>
		<polygon fill="none" stroke="#000000" points="123.361,-447.9 123.361,-489.5 242.639,-489.5 242.639,-447.9 		"/>
		<text transform="matrix(1 0 0 1 131.3608 -471.5002)" font-family="'Times-Roman'" font-size="14">invoke.cont4:</text>
		<text transform="matrix(1 0 0 1 131.3608 -454.7004)" font-family="'Times-Roman'" font-size="14">br label %try.cont</text>
	</g>
	<g id="edge14">
		<title>Node0x7fd9e9c10600-&gt;Node0x7fd9e9c10650</title>
		<path fill="none" stroke="#000000" d="M397.768-627.394C354.41-606.511,296.691-575.724,251-540.7
			c-16.419,12.586-32.535,29.17-44.953,43.146"/>
		<polygon stroke="#000000" points="208.395,-494.921 199.188,-489.678 203.116,-499.518 		"/>
	</g>
	<g id="node17">
		<title>Node0x7fd9e9c10740</title>
		<polygon fill="none" stroke="#000000" points="260.229,-397.5 260.229,-539.9 807.771,-539.9 807.771,-397.5 		"/>
		<text transform="matrix(1 0 0 1 268.229 -521.8997)" font-family="'Times-Roman'" font-size="14">lpad3:</text>
		<text transform="matrix(1 0 0 1 268.229 -505.0999)" font-family="'Times-Roman'" font-size="14">%7 = landingpad { i8*, i32 } personality i8* bitcast (i32 (...)* @__gxx_personality_v0 to i8*)</text>
		<text transform="matrix(1 0 0 1 268.229 -488.3)" font-family="'Times-Roman'" font-size="14">cleanup</text>
		<text transform="matrix(1 0 0 1 268.229 -471.5002)" font-family="'Times-Roman'" font-size="14">%8 = extractvalue { i8*, i32 } %7, 0</text>
		<text transform="matrix(1 0 0 1 268.229 -454.7004)" font-family="'Times-Roman'" font-size="14">store i8* %8, i8** %exn.slot</text>
		<text transform="matrix(1 0 0 1 268.229 -437.8997)" font-family="'Times-Roman'" font-size="14">%9 = extractvalue { i8*, i32 } %7, 1</text>
		<text transform="matrix(1 0 0 1 268.229 -421.0999)" font-family="'Times-Roman'" font-size="14">store i32 %9, i32* %ehselector.slot</text>
		<text transform="matrix(1 0 0 1 268.229 -404.3)" font-family="'Times-Roman'" font-size="14">br label %ehcleanup</text>
	</g>
	<g id="edge16">
		<title>Node0x7fd9e9c10600-&gt;Node0x7fd9e9c10740</title>
		<path fill="none" stroke="#000000" d="M472.087-627.451c8.17,20.818,19.713,50.229,30.623,78.025"/>
		<polygon stroke="#000000" points="505.984,-550.664 506.379,-540.077 499.468,-548.107 		"/>
	</g>
	<g id="node20">
		<title>Node0x7fd9e9c10790</title>
		<polygon fill="none" stroke="#000000" points="826.112,-447.9 826.112,-489.5 959.888,-489.5 959.888,-447.9 		"/>
		<text transform="matrix(1 0 0 1 834.1113 -471.5002)" font-family="'Times-Roman'" font-size="14">invoke.cont5:</text>
		<text transform="matrix(1 0 0 1 834.1113 -454.7004)" font-family="'Times-Roman'" font-size="14">br label %ehcleanup</text>
	</g>
	<g id="edge20">
		<title>Node0x7fd9e9c106f0-&gt;Node0x7fd9e9c10790</title>
		<path fill="none" stroke="#000000" d="M893-577.089c0,27.356,0,56.413,0,77.396"/>
		<polygon stroke="#000000" points="896.5,-499.51 893,-489.51 889.5,-499.51 		"/>
	</g>
	<g id="node22">
		<title>Node0x7fd9e9c108d0</title>
		<polygon fill="none" stroke="#000000" points="710.729,-171.7 710.729,-263.7 1265.27,-263.7 1265.27,-171.7 		"/>
		<text transform="matrix(1 0 0 1 718.7285 -245.7004)" font-family="'Times-Roman'" font-size="14">terminate.lpad:</text>
		<text transform="matrix(1 0 0 1 718.7285 -228.8997)" font-family="'Times-Roman'" font-size="14">%10 = landingpad { i8*, i32 } personality i8* bitcast (i32 (...)* @__gxx_personality_v0 to i8*)</text>
		<text transform="matrix(1 0 0 1 718.7285 -212.0999)" font-family="'Times-Roman'" font-size="14">catch i8* null</text>
		<text transform="matrix(1 0 0 1 718.7285 -195.3)" font-family="'Times-Roman'" font-size="14">call void @_ZSt9terminatev() noreturn nounwind</text>
		<text transform="matrix(1 0 0 1 718.7285 -178.5002)" font-family="'Times-Roman'" font-size="14">unreachable</text>
	</g>
	<g id="edge22">
		<title>Node0x7fd9e9c106f0-&gt;Node0x7fd9e9c108d0</title>
		<path fill="none" stroke="#000000" d="M951.655-577.036c6.514,11.712,12.259,24.006,16.345,36.336
			c29.766,89.833,28.953,201.351,24.959,266.798"/>
		<polygon stroke="#000000" points="996.444,-273.554 992.295,-263.805 989.459,-274.013 		"/>
	</g>
	<g id="edge18">
		<title>Node0x7fd9e9c10650-&gt;Node0x7fd9e9c106a0</title>
		<path fill="none" stroke="#000000" d="M176.508-447.633c-6.585,20.352-16.94,52.358-25.103,77.59"/>
		<polygon stroke="#000000" points="154.693,-368.834 148.284,-360.397 148.032,-370.99 		"/>
	</g>
	<g id="node24">
		<title>Node0x7fd9e9c107e0</title>
		<polygon fill="none" stroke="#000000" points="552.6,-301.5 552.6,-359.9 873.4,-359.9 873.4,-301.5 		"/>
		<text transform="matrix(1 0 0 1 560.6001 -341.8997)" font-family="'Times-Roman'" font-size="14">ehcleanup:</text>
		<text transform="matrix(1 0 0 1 560.6001 -325.0999)" font-family="'Times-Roman'" font-size="14">invoke void @_ZN2XXD1Ev(%class.XX* %xx)</text>
		<text transform="matrix(1 0 0 1 560.6001 -308.3)" font-family="'Times-Roman'" font-size="14">to label %invoke.cont6 unwind label %terminate.lpad</text>
	</g>
	<g id="edge24">
		<title>Node0x7fd9e9c10740-&gt;Node0x7fd9e9c107e0</title>
		<path fill="none" stroke="#000000" d="M626.646-397.31c14.274,10.846,28.443,21.611,41.051,31.189"/>
		<polygon stroke="#000000" points="669.896,-368.845 675.741,-360.008 665.661,-363.271 		"/>
	</g>
	<g id="edge26">
		<title>Node0x7fd9e9c10790-&gt;Node0x7fd9e9c107e0</title>
		<path fill="none" stroke="#000000" d="M873.3-447.657c-15.054,14.84-36.662,35.141-57.3,50.957
			c-14.17,10.86-30.196,21.626-45.314,31.181"/>
		<polygon stroke="#000000" points="772.248,-362.369 761.911,-360.043 768.542,-368.307 		"/>
	</g>
	<g id="edge30">
		<title>Node0x7fd9e9c107e0-&gt;Node0x7fd9e9c108d0</title>
		<path fill="none" stroke="#000000" d="M783.106-301.403c25.559,10.316,55.245,22.3,83.956,33.888"/>
		<polygon stroke="#000000" points="868.379,-270.758 876.342,-263.769 865.759,-264.267 		"/>
	</g>
	<g id="node27">
		<title>Node0x7fd9e9c10830</title>
		<polygon fill="none" stroke="#000000" points="558.914,-196.9 558.914,-238.5 693.086,-238.5 693.086,-196.9 		"/>
		<text transform="matrix(1 0 0 1 566.9141 -220.5002)" font-family="'Times-Roman'" font-size="14">invoke.cont6:</text>
		<text transform="matrix(1 0 0 1 566.9141 -203.7004)" font-family="'Times-Roman'" font-size="14">br label %eh.resume</text>
	</g>
	<g id="edge28">
		<title>Node0x7fd9e9c107e0-&gt;Node0x7fd9e9c10830</title>
		<path fill="none" stroke="#000000" d="M690.821-301.403c-13.118,16.737-29.675,37.859-42.771,54.568"/>
		<polygon stroke="#000000" points="650.479,-244.257 641.555,-238.546 644.969,-248.575 		"/>
	</g>
	<g id="node30">
		<title>Node0x7fd9e9c10880</title>
		<polygon fill="none" stroke="#000000" points="448.312,-25.3 448.312,-134.1 803.688,-134.1 803.688,-25.3 		"/>
		<text transform="matrix(1 0 0 1 456.312 -116.0999)" font-family="'Times-Roman'" font-size="14">eh.resume:</text>
		<text transform="matrix(1 0 0 1 456.312 -99.3)" font-family="'Times-Roman'" font-size="14">%exn7 = load i8** %exn.slot</text>
		<text transform="matrix(1 0 0 1 456.312 -82.5002)" font-family="'Times-Roman'" font-size="14">%sel = load i32* %ehselector.slot</text>
		<text transform="matrix(1 0 0 1 456.312 -65.7004)" font-family="'Times-Roman'" font-size="14">%lpad.val = insertvalue { i8*, i32 } undef, i8* %exn7, 0</text>
		<text transform="matrix(1 0 0 1 456.312 -48.8997)" font-family="'Times-Roman'" font-size="14">%lpad.val8 = insertvalue { i8*, i32 } %lpad.val, i32 %sel, 1</text>
		<text transform="matrix(1 0 0 1 456.312 -32.0999)" font-family="'Times-Roman'" font-size="14">resume { i8*, i32 } %lpad.val8</text>
	</g>
	<g id="edge32">
		<title>Node0x7fd9e9c10830-&gt;Node0x7fd9e9c10880</title>
		<path fill="none" stroke="#000000" d="M626-196.633c0,13.904,0,33.249,0,52.156"/>
		<polygon stroke="#000000" points="629.5,-144.359 626,-134.359 622.5,-144.359 		"/>
	</g>
</g>
<rect y="915.938" opacity="0.21" fill="#1F9F49" stroke="#000000" stroke-miterlimit="10" width="291" height="75.062"/>
<text transform="matrix(1 0 0 1 27.3159 1010.9365)" font-family="'MyriadPro-BoldIt'" font-size="18">cleanup-return-block</text>
<rect x="256.674" y="736.571" opacity="0.21" fill="#1F9F49" stroke="#000000" stroke-miterlimit="10" width="564.325" height="152.43"/>
<text transform="matrix(1 0 0 1 320.1997 912.7529)" font-family="'MyriadPro-BoldIt'" font-size="18">cleanup-landing-pad-block</text>
<rect x="550.915" y="912.154" opacity="0.21" fill="#1F9F49" stroke="#000000" stroke-miterlimit="10" width="339.325" height="72.943"/>
<text transform="matrix(1 0 0 1 406.4116 1006.1855)" font-family="'MyriadPro-BoldIt'" font-size="18">exception-handler-cleanup-block</text>
<rect x="708.526" y="1009.619" opacity="0.21" fill="#ED1E2E" stroke="#000000" stroke-miterlimit="10" width="574.474" height="109.381"/>
<rect x="446.469" y="1139.831" opacity="0.21" fill="#1F9F49" stroke="#000000" stroke-miterlimit="10" width="376.531" height="119.17"/>
<text transform="matrix(1 0 0 1 182.7759 1263.9521)" font-family="'MyriadPro-BoldIt'" font-size="18">exception-handler-resume-block</text>
<text transform="matrix(1 0 0 1 1010.6133 1145.0898)" font-family="'MyriadPro-BoldIt'" font-size="18">terminate-landing-pad</text>
</svg>
