<?xml version="1.0" encoding="UTF-8" standalone="no"?>
<!DOCTYPE svg PUBLIC "-//W3C//DTD SVG 1.1//EN"
 "http://www.w3.org/Graphics/SVG/1.1/DTD/svg11.dtd">
<!-- Generated by graphviz version 2.28.0 (20111028.1807)
 -->
<!-- Title: CFG for &#39;_ZN2XXD0Ev&#39; function Pages: 1 -->
<svg width="813pt" height="537pt"
 viewBox="0.00 0.00 813.00 536.80" xmlns="http://www.w3.org/2000/svg" xmlns:xlink="http://www.w3.org/1999/xlink">
<g id="graph1" class="graph" transform="scale(1 1) rotate(0) translate(4 532.8)">
<title>CFG for &#39;_ZN2XXD0Ev&#39; function</title>
<polygon fill="white" stroke="white" points="-4,5 -4,-532.8 810,-532.8 810,5 -4,5"/>
<text text-anchor="middle" x="402.5" y="-6.8" font-family="Times,serif" font-size="14.00">CFG for &#39;_ZN2XXD0Ev&#39; function</text>
<!-- Node0x7fd9e9c13690 -->
<g id="node1" class="node"><title>Node0x7fd9e9c13690</title>
<polygon fill="none" stroke="black" points="152.249,-385.6 152.249,-528 499.751,-528 499.751,-385.6 152.249,-385.6"/>
<text text-anchor="start" x="160.249" y="-510" font-family="Times,serif" font-size="14.00">entry:</text>
<text text-anchor="start" x="160.249" y="-493.2" font-family="Times,serif" font-size="14.00"> %this.addr = alloca %class.XX*, align 8</text>
<text text-anchor="start" x="160.249" y="-476.4" font-family="Times,serif" font-size="14.00"> %exn.slot = alloca i8*</text>
<text text-anchor="start" x="160.249" y="-459.6" font-family="Times,serif" font-size="14.00"> %ehselector.slot = alloca i32</text>
<text text-anchor="start" x="160.249" y="-442.8" font-family="Times,serif" font-size="14.00"> store %class.XX* %this, %class.XX** %this.addr, align 8</text>
<text text-anchor="start" x="160.249" y="-426" font-family="Times,serif" font-size="14.00"> %this1 = load %class.XX** %this.addr</text>
<text text-anchor="start" x="160.249" y="-409.2" font-family="Times,serif" font-size="14.00"> invoke void @_ZN2XXD1Ev(%class.XX* %this1)</text>
<text text-anchor="start" x="160.249" y="-392.4" font-family="Times,serif" font-size="14.00"> to label %invoke.cont unwind label %lpad</text>
</g>
<!-- Node0x7fd9e9c136e0 -->
<g id="node3" class="node"><title>Node0x7fd9e9c136e0</title>
<polygon fill="none" stroke="black" points="-0.434082,-222.2 -0.434082,-297.4 240.434,-297.4 240.434,-222.2 -0.434082,-222.2"/>
<text text-anchor="start" x="7.56592" y="-279.4" font-family="Times,serif" font-size="14.00">invoke.cont: </text>
<text text-anchor="start" x="7.56592" y="-262.6" font-family="Times,serif" font-size="14.00"> %0 = bitcast %class.XX* %this1 to i8*</text>
<text text-anchor="start" x="7.56592" y="-245.8" font-family="Times,serif" font-size="14.00"> call void @_ZdlPv(i8* %0) nounwind</text>
<text text-anchor="start" x="7.56592" y="-229" font-family="Times,serif" font-size="14.00"> ret void</text>
</g>
<!-- Node0x7fd9e9c13690&#45;&gt;Node0x7fd9e9c136e0 -->
<g id="edge2" class="edge"><title>Node0x7fd9e9c13690&#45;&gt;Node0x7fd9e9c136e0</title>
<path fill="none" stroke="black" d="M251.629,-385.401C223.117,-358.41 191.424,-328.41 166.283,-304.612"/>
<polygon fill="black" stroke="black" points="168.37,-301.768 158.702,-297.435 163.558,-306.851 168.37,-301.768"/>
</g>
<!-- Node0x7fd9e9c13730 -->
<g id="node5" class="node"><title>Node0x7fd9e9c13730</title>
<polygon fill="none" stroke="black" points="258.229,-171.8 258.229,-347.8 805.771,-347.8 805.771,-171.8 258.229,-171.8"/>
<text text-anchor="start" x="266.229" y="-329.8" font-family="Times,serif" font-size="14.00">lpad: </text>
<text text-anchor="start" x="266.229" y="-313" font-family="Times,serif" font-size="14.00"> %1 = landingpad { i8*, i32 } personality i8* bitcast (i32 (...)* @__gxx_personality_v0 to i8*)</text>
<text text-anchor="start" x="266.229" y="-296.2" font-family="Times,serif" font-size="14.00"> cleanup</text>
<text text-anchor="start" x="266.229" y="-279.4" font-family="Times,serif" font-size="14.00"> %2 = extractvalue { i8*, i32 } %1, 0</text>
<text text-anchor="start" x="266.229" y="-262.6" font-family="Times,serif" font-size="14.00"> store i8* %2, i8** %exn.slot</text>
<text text-anchor="start" x="266.229" y="-245.8" font-family="Times,serif" font-size="14.00"> %3 = extractvalue { i8*, i32 } %1, 1</text>
<text text-anchor="start" x="266.229" y="-229" font-family="Times,serif" font-size="14.00"> store i32 %3, i32* %ehselector.slot</text>
<text text-anchor="start" x="266.229" y="-212.2" font-family="Times,serif" font-size="14.00"> %4 = bitcast %class.XX* %this1 to i8*</text>
<text text-anchor="start" x="266.229" y="-195.4" font-family="Times,serif" font-size="14.00"> call void @_ZdlPv(i8* %4) nounwind</text>
<text text-anchor="start" x="266.229" y="-178.6" font-family="Times,serif" font-size="14.00"> br label %eh.resume</text>
</g>
<!-- Node0x7fd9e9c13690&#45;&gt;Node0x7fd9e9c13730 -->
<g id="edge4" class="edge"><title>Node0x7fd9e9c13690&#45;&gt;Node0x7fd9e9c13730</title>
<path fill="none" stroke="black" d="M400.371,-385.401C410.765,-375.562 421.581,-365.323 432.348,-355.131"/>
<polygon fill="black" stroke="black" points="434.933,-357.503 439.789,-348.087 430.121,-352.42 434.933,-357.503"/>
</g>
<!-- Node0x7fd9e9c13780 -->
<g id="node7" class="node"><title>Node0x7fd9e9c13780</title>
<polygon fill="none" stroke="black" points="354.312,-25.4 354.312,-134.2 709.688,-134.2 709.688,-25.4 354.312,-25.4"/>
<text text-anchor="start" x="362.312" y="-116.2" font-family="Times,serif" font-size="14.00">eh.resume: </text>
<text text-anchor="start" x="362.312" y="-99.4" font-family="Times,serif" font-size="14.00"> %exn = load i8** %exn.slot</text>
<text text-anchor="start" x="362.312" y="-82.6" font-family="Times,serif" font-size="14.00"> %sel = load i32* %ehselector.slot</text>
<text text-anchor="start" x="362.312" y="-65.8" font-family="Times,serif" font-size="14.00"> %lpad.val = insertvalue { i8*, i32 } undef, i8* %exn, 0</text>
<text text-anchor="start" x="362.312" y="-49" font-family="Times,serif" font-size="14.00"> %lpad.val2 = insertvalue { i8*, i32 } %lpad.val, i32 %sel, 1</text>
<text text-anchor="start" x="362.312" y="-32.2" font-family="Times,serif" font-size="14.00"> resume { i8*, i32 } %lpad.val2</text>
</g>
<!-- Node0x7fd9e9c13730&#45;&gt;Node0x7fd9e9c13780 -->
<g id="edge6" class="edge"><title>Node0x7fd9e9c13730&#45;&gt;Node0x7fd9e9c13780</title>
<path fill="none" stroke="black" d="M532,-171.625C532,-162.508 532,-153.366 532,-144.581"/>
<polygon fill="black" stroke="black" points="535.5,-144.455 532,-134.455 528.5,-144.455 535.5,-144.455"/>
</g>
</g>
</svg>
