<?xml version="1.0" encoding="UTF-8" standalone="no"?>
<!DOCTYPE svg PUBLIC "-//W3C//DTD SVG 1.1//EN"
 "http://www.w3.org/Graphics/SVG/1.1/DTD/svg11.dtd">
<!-- Generated by graphviz version 2.28.0 (20111028.1807)
 -->
<!-- Title: CFG for &#39;proto_cleanup&#39; function Pages: 1 -->
<svg width="1030pt" height="633pt"
 viewBox="0.00 0.00 1030.00 632.80" xmlns="http://www.w3.org/2000/svg" xmlns:xlink="http://www.w3.org/1999/xlink">
<g id="graph1" class="graph" transform="scale(1 1) rotate(0) translate(4 628.8)">
<title>CFG for &#39;proto_cleanup&#39; function</title>
<polygon fill="white" stroke="white" points="-4,5 -4,-628.8 1027,-628.8 1027,5 -4,5"/>
<text text-anchor="middle" x="511" y="-6.8" font-family="Times,serif" font-size="14.00">CFG for &#39;proto_cleanup&#39; function</text>
<!-- Node0x7fdd33412010 -->
<g id="node1" class="node"><title>Node0x7fdd33412010</title>
<polygon fill="none" stroke="black" points="215.328,-498 215.328,-623.6 492.672,-623.6 492.672,-498 215.328,-498"/>
<text text-anchor="start" x="223.328" y="-605.6" font-family="Times,serif" font-size="14.00">entry:</text>
<text text-anchor="start" x="223.328" y="-588.8" font-family="Times,serif" font-size="14.00"> %xx = alloca %class.XX, align 8</text>
<text text-anchor="start" x="223.328" y="-572" font-family="Times,serif" font-size="14.00"> %exn.slot = alloca i8*</text>
<text text-anchor="start" x="223.328" y="-555.2" font-family="Times,serif" font-size="14.00"> %ehselector.slot = alloca i32</text>
<text text-anchor="start" x="223.328" y="-538.4" font-family="Times,serif" font-size="14.00"> call void @_ZN2XXC1Ev(%class.XX* %xx)</text>
<text text-anchor="start" x="223.328" y="-521.6" font-family="Times,serif" font-size="14.00"> invoke void @a()</text>
<text text-anchor="start" x="223.328" y="-504.8" font-family="Times,serif" font-size="14.00"> to label %invoke.cont unwind label %lpad</text>
</g>
<!-- Node0x7fdd33412060 -->
<g id="node3" class="node"><title>Node0x7fdd33412060</title>
<polygon fill="none" stroke="black" points="-0.0585938,-351.6 -0.0585938,-410 278.059,-410 278.059,-351.6 -0.0585938,-351.6"/>
<text text-anchor="start" x="7.94141" y="-392" font-family="Times,serif" font-size="14.00">invoke.cont: </text>
<text text-anchor="start" x="7.94141" y="-375.2" font-family="Times,serif" font-size="14.00"> call void @_ZN2XXD1Ev(%class.XX* %xx)</text>
<text text-anchor="start" x="7.94141" y="-358.4" font-family="Times,serif" font-size="14.00"> ret void</text>
</g>
<!-- Node0x7fdd33412010&#45;&gt;Node0x7fdd33412060 -->
<g id="edge2" class="edge"><title>Node0x7fdd33412010&#45;&gt;Node0x7fdd33412060</title>
<path fill="none" stroke="black" d="M279.105,-497.794C246.346,-470.672 209.124,-439.857 181.284,-416.807"/>
<polygon fill="black" stroke="black" points="183.262,-413.901 173.327,-410.22 178.798,-419.293 183.262,-413.901"/>
</g>
<!-- Node0x7fdd334120b0 -->
<g id="node5" class="node"><title>Node0x7fdd334120b0</title>
<polygon fill="none" stroke="black" points="296.229,-301.2 296.229,-460.4 843.771,-460.4 843.771,-301.2 296.229,-301.2"/>
<text text-anchor="start" x="304.229" y="-442.4" font-family="Times,serif" font-size="14.00">lpad: </text>
<text text-anchor="start" x="304.229" y="-425.6" font-family="Times,serif" font-size="14.00"> %0 = landingpad { i8*, i32 } personality i8* bitcast (i32 (...)* @__gxx_personality_v0 to i8*)</text>
<text text-anchor="start" x="304.229" y="-408.8" font-family="Times,serif" font-size="14.00"> cleanup</text>
<text text-anchor="start" x="304.229" y="-392" font-family="Times,serif" font-size="14.00"> %1 = extractvalue { i8*, i32 } %0, 0</text>
<text text-anchor="start" x="304.229" y="-375.2" font-family="Times,serif" font-size="14.00"> store i8* %1, i8** %exn.slot</text>
<text text-anchor="start" x="304.229" y="-358.4" font-family="Times,serif" font-size="14.00"> %2 = extractvalue { i8*, i32 } %0, 1</text>
<text text-anchor="start" x="304.229" y="-341.6" font-family="Times,serif" font-size="14.00"> store i32 %2, i32* %ehselector.slot</text>
<text text-anchor="start" x="304.229" y="-324.8" font-family="Times,serif" font-size="14.00"> invoke void @_ZN2XXD1Ev(%class.XX* %xx)</text>
<text text-anchor="start" x="304.229" y="-308" font-family="Times,serif" font-size="14.00"> to label %invoke.cont1 unwind label %terminate.lpad</text>
</g>
<!-- Node0x7fdd33412010&#45;&gt;Node0x7fdd334120b0 -->
<g id="edge4" class="edge"><title>Node0x7fdd33412010&#45;&gt;Node0x7fdd334120b0</title>
<path fill="none" stroke="black" d="M429.243,-497.794C441.342,-487.824 454.047,-477.354 466.667,-466.954"/>
<polygon fill="black" stroke="black" points="469.016,-469.553 474.508,-460.493 464.565,-464.151 469.016,-469.553"/>
</g>
<!-- Node0x7fdd33412550 -->
<g id="node7" class="node"><title>Node0x7fdd33412550</title>
<polygon fill="none" stroke="black" points="322.914,-197 322.914,-238.6 457.086,-238.6 457.086,-197 322.914,-197"/>
<text text-anchor="start" x="330.914" y="-220.6" font-family="Times,serif" font-size="14.00">invoke.cont1: </text>
<text text-anchor="start" x="330.914" y="-203.8" font-family="Times,serif" font-size="14.00"> br label %eh.resume</text>
</g>
<!-- Node0x7fdd334120b0&#45;&gt;Node0x7fdd33412550 -->
<g id="edge6" class="edge"><title>Node0x7fdd334120b0&#45;&gt;Node0x7fdd33412550</title>
<path fill="none" stroke="black" d="M482.109,-301.187C459.666,-281.113 437.048,-260.882 419.842,-245.492"/>
<polygon fill="black" stroke="black" points="422.124,-242.837 412.337,-238.779 417.457,-248.055 422.124,-242.837"/>
</g>
<!-- Node0x7fdd334125f0 -->
<g id="node9" class="node"><title>Node0x7fdd334125f0</title>
<polygon fill="none" stroke="black" points="475.229,-171.8 475.229,-263.8 1022.77,-263.8 1022.77,-171.8 475.229,-171.8"/>
<text text-anchor="start" x="483.229" y="-245.8" font-family="Times,serif" font-size="14.00">terminate.lpad: </text>
<text text-anchor="start" x="483.229" y="-229" font-family="Times,serif" font-size="14.00"> %3 = landingpad { i8*, i32 } personality i8* bitcast (i32 (...)* @__gxx_personality_v0 to i8*)</text>
<text text-anchor="start" x="483.229" y="-212.2" font-family="Times,serif" font-size="14.00"> catch i8* null</text>
<text text-anchor="start" x="483.229" y="-195.4" font-family="Times,serif" font-size="14.00"> call void @_ZSt9terminatev() noreturn nounwind</text>
<text text-anchor="start" x="483.229" y="-178.6" font-family="Times,serif" font-size="14.00"> unreachable</text>
</g>
<!-- Node0x7fdd334120b0&#45;&gt;Node0x7fdd334125f0 -->
<g id="edge8" class="edge"><title>Node0x7fdd334120b0&#45;&gt;Node0x7fdd334125f0</title>
<path fill="none" stroke="black" d="M657.403,-301.187C668.829,-290.909 680.3,-280.591 691.072,-270.903"/>
<polygon fill="black" stroke="black" points="693.687,-273.258 698.781,-263.969 689.006,-268.054 693.687,-273.258"/>
</g>
<!-- Node0x7fdd334125a0 -->
<g id="node11" class="node"><title>Node0x7fdd334125a0</title>
<polygon fill="none" stroke="black" points="212.312,-25.4 212.312,-134.2 567.688,-134.2 567.688,-25.4 212.312,-25.4"/>
<text text-anchor="start" x="220.312" y="-116.2" font-family="Times,serif" font-size="14.00">eh.resume: </text>
<text text-anchor="start" x="220.312" y="-99.4" font-family="Times,serif" font-size="14.00"> %exn = load i8** %exn.slot</text>
<text text-anchor="start" x="220.312" y="-82.6" font-family="Times,serif" font-size="14.00"> %sel = load i32* %ehselector.slot</text>
<text text-anchor="start" x="220.312" y="-65.8" font-family="Times,serif" font-size="14.00"> %lpad.val = insertvalue { i8*, i32 } undef, i8* %exn, 0</text>
<text text-anchor="start" x="220.312" y="-49" font-family="Times,serif" font-size="14.00"> %lpad.val2 = insertvalue { i8*, i32 } %lpad.val, i32 %sel, 1</text>
<text text-anchor="start" x="220.312" y="-32.2" font-family="Times,serif" font-size="14.00"> resume { i8*, i32 } %lpad.val2</text>
</g>
<!-- Node0x7fdd33412550&#45;&gt;Node0x7fdd334125a0 -->
<g id="edge10" class="edge"><title>Node0x7fdd33412550&#45;&gt;Node0x7fdd334125a0</title>
<path fill="none" stroke="black" d="M390,-196.733C390,-182.829 390,-163.484 390,-144.577"/>
<polygon fill="black" stroke="black" points="393.5,-144.459 390,-134.459 386.5,-144.459 393.5,-144.459"/>
</g>
</g>
</svg>
