<?xml version="1.0" encoding="UTF-8" standalone="no"?>
<!DOCTYPE svg PUBLIC "-//W3C//DTD SVG 1.1//EN"
 "http://www.w3.org/Graphics/SVG/1.1/DTD/svg11.dtd">
<!-- Generated by graphviz version 2.28.0 (20111028.1807)
 -->
<!-- Title: CFG for &#39;a&#39; function Pages: 1 -->
<svg width="934pt" height="729pt"
 viewBox="0.00 0.00 934.00 728.80" xmlns="http://www.w3.org/2000/svg" xmlns:xlink="http://www.w3.org/1999/xlink">
<g id="graph1" class="graph" transform="scale(1 1) rotate(0) translate(4 724.8)">
<title>CFG for &#39;a&#39; function</title>
<polygon fill="white" stroke="white" points="-4,5 -4,-724.8 931,-724.8 931,5 -4,5"/>
<text text-anchor="middle" x="463" y="-6.8" font-family="Times,serif" font-size="14.00">CFG for &#39;a&#39; function</text>
<!-- Node0x7fd9e9c0e020 -->
<g id="node1" class="node"><title>Node0x7fd9e9c0e020</title>
<polygon fill="none" stroke="black" points="154.152,-594 154.152,-719.6 717.848,-719.6 717.848,-594 154.152,-594"/>
<text text-anchor="start" x="162.152" y="-701.6" font-family="Times,serif" font-size="14.00">entry:</text>
<text text-anchor="start" x="162.152" y="-684.8" font-family="Times,serif" font-size="14.00"> %xx = alloca %class.XX, align 8</text>
<text text-anchor="start" x="162.152" y="-668" font-family="Times,serif" font-size="14.00"> %exn.slot = alloca i8*</text>
<text text-anchor="start" x="162.152" y="-651.2" font-family="Times,serif" font-size="14.00"> %ehselector.slot = alloca i32</text>
<text text-anchor="start" x="162.152" y="-634.4" font-family="Times,serif" font-size="14.00"> call void @_ZN2XXC1Ev(%class.XX* %xx)</text>
<text text-anchor="start" x="162.152" y="-617.6" font-family="Times,serif" font-size="14.00"> %call = invoke i32 (i8*, ...)* @printf(i8* getelementptr inbounds ([6 x i8]* @.str1, i32 0, i32 0))</text>
<text text-anchor="start" x="162.152" y="-600.8" font-family="Times,serif" font-size="14.00"> to label %invoke.cont unwind label %lpad</text>
</g>
<!-- Node0x7fd9e9c0e070 -->
<g id="node3" class="node"><title>Node0x7fd9e9c0e070</title>
<polygon fill="none" stroke="black" points="383.781,-497.6 383.781,-556 648.219,-556 648.219,-497.6 383.781,-497.6"/>
<text text-anchor="start" x="391.781" y="-538" font-family="Times,serif" font-size="14.00">invoke.cont: </text>
<text text-anchor="start" x="391.781" y="-521.2" font-family="Times,serif" font-size="14.00"> invoke void @z()</text>
<text text-anchor="start" x="391.781" y="-504.4" font-family="Times,serif" font-size="14.00"> to label %invoke.cont1 unwind label %lpad</text>
</g>
<!-- Node0x7fd9e9c0e020&#45;&gt;Node0x7fd9e9c0e070 -->
<g id="edge2" class="edge"><title>Node0x7fd9e9c0e020&#45;&gt;Node0x7fd9e9c0e070</title>
<path fill="none" stroke="black" d="M474.828,-593.675C480.979,-583.834 487.167,-573.933 492.809,-564.906"/>
<polygon fill="black" stroke="black" points="495.916,-566.539 498.248,-556.204 489.98,-562.829 495.916,-566.539"/>
</g>
<!-- Node0x7fd9e9c0e110 -->
<g id="node5" class="node"><title>Node0x7fd9e9c0e110</title>
<polygon fill="none" stroke="black" points="82.229,-301.2 82.229,-460.4 629.771,-460.4 629.771,-301.2 82.229,-301.2"/>
<text text-anchor="start" x="90.229" y="-442.4" font-family="Times,serif" font-size="14.00">lpad: </text>
<text text-anchor="start" x="90.229" y="-425.6" font-family="Times,serif" font-size="14.00"> %0 = landingpad { i8*, i32 } personality i8* bitcast (i32 (...)* @__gxx_personality_v0 to i8*)</text>
<text text-anchor="start" x="90.229" y="-408.8" font-family="Times,serif" font-size="14.00"> cleanup</text>
<text text-anchor="start" x="90.229" y="-392" font-family="Times,serif" font-size="14.00"> %1 = extractvalue { i8*, i32 } %0, 0</text>
<text text-anchor="start" x="90.229" y="-375.2" font-family="Times,serif" font-size="14.00"> store i8* %1, i8** %exn.slot</text>
<text text-anchor="start" x="90.229" y="-358.4" font-family="Times,serif" font-size="14.00"> %2 = extractvalue { i8*, i32 } %0, 1</text>
<text text-anchor="start" x="90.229" y="-341.6" font-family="Times,serif" font-size="14.00"> store i32 %2, i32* %ehselector.slot</text>
<text text-anchor="start" x="90.229" y="-324.8" font-family="Times,serif" font-size="14.00"> invoke void @_ZN2XXD1Ev(%class.XX* %xx)</text>
<text text-anchor="start" x="90.229" y="-308" font-family="Times,serif" font-size="14.00"> to label %invoke.cont2 unwind label %terminate.lpad</text>
</g>
<!-- Node0x7fd9e9c0e020&#45;&gt;Node0x7fd9e9c0e110 -->
<g id="edge4" class="edge"><title>Node0x7fd9e9c0e020&#45;&gt;Node0x7fd9e9c0e110</title>
<path fill="none" stroke="black" d="M392.212,-593.977C385.467,-582.09 379.32,-569.404 375,-556.8 365.69,-529.636 360.655,-498.837 358.01,-470.731"/>
<polygon fill="black" stroke="black" points="361.476,-470.177 357.141,-460.51 354.501,-470.771 361.476,-470.177"/>
</g>
<!-- Node0x7fd9e9c0e070&#45;&gt;Node0x7fd9e9c0e110 -->
<g id="edge8" class="edge"><title>Node0x7fd9e9c0e070&#45;&gt;Node0x7fd9e9c0e110</title>
<path fill="none" stroke="black" d="M484.389,-497.35C474.509,-488.458 463.052,-478.147 451.13,-467.417"/>
<polygon fill="black" stroke="black" points="453.431,-464.779 443.656,-460.691 448.748,-469.982 453.431,-464.779"/>
</g>
<!-- Node0x7fd9e9c0e0c0 -->
<g id="node7" class="node"><title>Node0x7fd9e9c0e0c0</title>
<polygon fill="none" stroke="black" points="647.941,-351.6 647.941,-410 926.059,-410 926.059,-351.6 647.941,-351.6"/>
<text text-anchor="start" x="655.941" y="-392" font-family="Times,serif" font-size="14.00">invoke.cont1: </text>
<text text-anchor="start" x="655.941" y="-375.2" font-family="Times,serif" font-size="14.00"> call void @_ZN2XXD1Ev(%class.XX* %xx)</text>
<text text-anchor="start" x="655.941" y="-358.4" font-family="Times,serif" font-size="14.00"> ret void</text>
</g>
<!-- Node0x7fd9e9c0e070&#45;&gt;Node0x7fd9e9c0e0c0 -->
<g id="edge6" class="edge"><title>Node0x7fd9e9c0e070&#45;&gt;Node0x7fd9e9c0e0c0</title>
<path fill="none" stroke="black" d="M569.218,-497.522C613.965,-473.745 677.979,-439.73 725.028,-414.73"/>
<polygon fill="black" stroke="black" points="726.716,-417.796 733.904,-410.013 723.431,-411.615 726.716,-417.796"/>
</g>
<!-- Node0x7fd9e9c0e160 -->
<g id="node10" class="node"><title>Node0x7fd9e9c0e160</title>
<polygon fill="none" stroke="black" points="109.914,-197 109.914,-238.6 244.086,-238.6 244.086,-197 109.914,-197"/>
<text text-anchor="start" x="117.914" y="-220.6" font-family="Times,serif" font-size="14.00">invoke.cont2: </text>
<text text-anchor="start" x="117.914" y="-203.8" font-family="Times,serif" font-size="14.00"> br label %eh.resume</text>
</g>
<!-- Node0x7fd9e9c0e110&#45;&gt;Node0x7fd9e9c0e160 -->
<g id="edge10" class="edge"><title>Node0x7fd9e9c0e110&#45;&gt;Node0x7fd9e9c0e160</title>
<path fill="none" stroke="black" d="M268.597,-301.187C246.279,-281.113 223.787,-260.882 206.676,-245.492"/>
<polygon fill="black" stroke="black" points="208.988,-242.864 199.213,-238.779 204.307,-248.069 208.988,-242.864"/>
</g>
<!-- Node0x7fd9e9c0e200 -->
<g id="node12" class="node"><title>Node0x7fd9e9c0e200</title>
<polygon fill="none" stroke="black" points="262.229,-171.8 262.229,-263.8 809.771,-263.8 809.771,-171.8 262.229,-171.8"/>
<text text-anchor="start" x="270.229" y="-245.8" font-family="Times,serif" font-size="14.00">terminate.lpad: </text>
<text text-anchor="start" x="270.229" y="-229" font-family="Times,serif" font-size="14.00"> %3 = landingpad { i8*, i32 } personality i8* bitcast (i32 (...)* @__gxx_personality_v0 to i8*)</text>
<text text-anchor="start" x="270.229" y="-212.2" font-family="Times,serif" font-size="14.00"> catch i8* null</text>
<text text-anchor="start" x="270.229" y="-195.4" font-family="Times,serif" font-size="14.00"> call void @_ZSt9terminatev() noreturn nounwind</text>
<text text-anchor="start" x="270.229" y="-178.6" font-family="Times,serif" font-size="14.00"> unreachable</text>
</g>
<!-- Node0x7fd9e9c0e110&#45;&gt;Node0x7fd9e9c0e200 -->
<g id="edge12" class="edge"><title>Node0x7fd9e9c0e110&#45;&gt;Node0x7fd9e9c0e200</title>
<path fill="none" stroke="black" d="M443.891,-301.187C455.381,-290.909 466.917,-280.591 477.749,-270.903"/>
<polygon fill="black" stroke="black" points="480.381,-273.244 485.501,-263.969 475.714,-268.027 480.381,-273.244"/>
</g>
<!-- Node0x7fd9e9c0e1b0 -->
<g id="node14" class="node"><title>Node0x7fd9e9c0e1b0</title>
<polygon fill="none" stroke="black" points="-0.688477,-25.4 -0.688477,-134.2 354.688,-134.2 354.688,-25.4 -0.688477,-25.4"/>
<text text-anchor="start" x="7.31152" y="-116.2" font-family="Times,serif" font-size="14.00">eh.resume: </text>
<text text-anchor="start" x="7.31152" y="-99.4" font-family="Times,serif" font-size="14.00"> %exn = load i8** %exn.slot</text>
<text text-anchor="start" x="7.31152" y="-82.6" font-family="Times,serif" font-size="14.00"> %sel = load i32* %ehselector.slot</text>
<text text-anchor="start" x="7.31152" y="-65.8" font-family="Times,serif" font-size="14.00"> %lpad.val = insertvalue { i8*, i32 } undef, i8* %exn, 0</text>
<text text-anchor="start" x="7.31152" y="-49" font-family="Times,serif" font-size="14.00"> %lpad.val3 = insertvalue { i8*, i32 } %lpad.val, i32 %sel, 1</text>
<text text-anchor="start" x="7.31152" y="-32.2" font-family="Times,serif" font-size="14.00"> resume { i8*, i32 } %lpad.val3</text>
</g>
<!-- Node0x7fd9e9c0e160&#45;&gt;Node0x7fd9e9c0e1b0 -->
<g id="edge14" class="edge"><title>Node0x7fd9e9c0e160&#45;&gt;Node0x7fd9e9c0e1b0</title>
<path fill="none" stroke="black" d="M177,-196.733C177,-182.829 177,-163.484 177,-144.577"/>
<polygon fill="black" stroke="black" points="180.5,-144.459 177,-134.459 173.5,-144.459 180.5,-144.459"/>
</g>
</g>
</svg>
